PathFileType	4	(X/Y/Z)	c:/Users/goper/Files/vsCode/490R/osim_files/C10/C10_Slow_06.trc
DataRate	CameraRate	NumFrames	NumMarkers	Units                	OrigDataRate	OrigDataStartFrame	OrigNumFrames
250.00	250.00	8	36	mm	250.0	1710	2735
                Frame#	Time	LPSIS			LASIS			LTH1			LTH2			LTH3			LTH4			LLFE			LMFE			LSH1			LSH2			LSH3			LSH4			LLMAL			LMMAL			LCAL			LMTP5			LTOE			LMTP1			RPSIS			RASIS			RTH1			RTH2			RTH3			RTH4			RLFE			RMFE			RSH1			RSH2			RSH3			RSH4			RLMAL			RMMAL			RCAL			RMTP1			RTOE			RMTP5		
		X1	Y1	Z1	X2	Y2	Z2	X3	Y3	Z3	X4	Y4	Z4	X5	Y5	Z5	X6	Y6	Z6	X7	Y7	Z7	X8	Y8	Z8	X9	Y9	Z9	X10	Y10	Z10	X11	Y11	Z11	X12	Y12	Z12	X13	Y13	Z13	X14	Y14	Z14	X15	Y15	Z15	X16	Y16	Z16	X17	Y17	Z17	X18	Y18	Z18	X19	Y19	Z19	X20	Y20	Z20	X21	Y21	Z21	X22	Y22	Z22	X23	Y23	Z23	X24	Y24	Z24	X25	Y25	Z25	X26	Y26	Z26	X27	Y27	Z27	X28	Y28	Z28	X29	Y29	Z29	X30	Y30	Z30	X31	Y31	Z31	X32	Y32	Z32	X33	Y33	Z33	X34	Y34	Z34	X35	Y35	Z35	X36	Y36	Z36

1710	6.83600	-2410.09521	991.19128	311.07803	-2584.77979	991.66718	439.69424	-2602.34570	757.43634	477.58389	-2625.23242	716.10504	470.99417	-2654.42896	783.66003	455.84888	-2668.13306	739.21826	450.17444	-2725.72070	502.20181	382.13260	-2690.10132	404.61801	403.09628	-2779.96631	400.78558	404.09180	-2736.03052	407.34174	377.84326	0.00000	0.00000	0.00000	-2730.99146	368.87592	384.25467	-2735.10327	89.14323	355.73932	0.00000	0.00000	0.00000	-2659.64771	44.15598	317.31354	-2849.06934	37.61900	362.26682	-2882.52490	65.12434	290.92465	-2806.33911	102.99850	371.04471	-2412.54224	995.41760	227.41533	-2566.97974	963.51117	112.73705	-2449.98242	723.46967	80.71040	-2444.44556	682.24329	76.31322	-2510.56836	721.25079	67.71596	-2498.25732	677.20630	67.54305	-2422.88159	460.53525	127.29556	-2450.46606	444.26700	239.01749	-2308.18872	427.63983	130.39453	-2284.88647	390.86652	130.60855	0.00000	0.00000	0.00000	-2324.94507	357.99722	126.29863	-2140.81885	166.43344	184.20403	-2196.47339	166.26933	278.56369	-2065.61914	157.74731	235.55426	-2218.09790	41.10680	261.32440	-2241.73486	40.39949	220.05528	-2190.77197	41.24848	158.28905
1711	6.84000	-2413.95239	992.56970	312.03256	-2589.25537	992.90283	439.99921	-2607.05957	758.13867	478.52750	-2629.68237	716.67004	471.79730	-2659.02588	784.22534	456.71237	-2672.59961	739.75720	450.98190	-2728.86816	502.98645	383.51840	-2692.18677	404.52197	403.63156	-2781.82495	400.58160	404.58911	-2738.82397	406.80286	378.13608	0.00000	0.00000	0.00000	-2733.22119	368.69681	384.49789	-2735.40894	89.04716	355.77304	0.00000	0.00000	0.00000	-2659.68237	44.18535	317.35233	-2849.17285	37.43488	362.29019	-2893.41724	61.66468	295.34930	-2804.58496	105.53445	378.87219	-2418.58643	995.44586	227.41054	-2571.11670	963.70258	113.90844	-2454.18555	721.90955	82.91651	-2451.15161	681.58337	76.74390	-2517.01270	721.21173	68.11133	-2504.96680	677.10394	67.96111	-2431.37695	459.89218	126.80034	-2460.00708	443.04749	238.15494	-2316.45117	428.50778	130.68559	-2292.60547	392.06598	130.84958	0.00000	0.00000	0.00000	-2331.86133	358.67831	126.09348	-2145.63916	169.59441	184.16074	-2201.18042	169.09915	278.53928	-2070.34229	163.04971	235.78923	-2219.40234	42.09275	261.46860	-2242.64746	40.48526	220.03734	-2191.92188	42.78154	158.48518
1712	6.84400	-2417.74292	993.63690	312.65985	-2593.61792	994.13184	440.43625	-2611.58691	758.85516	479.53265	-2633.97363	717.32605	472.62112	-2663.59082	784.82330	457.59946	-2676.94702	740.31543	451.76471	-2730.56494	502.32922	384.58426	-2694.11743	404.51807	404.12686	-2783.80273	400.55508	405.05215	-2748.34692	405.27701	409.66354	0.00000	0.00000	0.00000	-2735.37109	368.51614	384.74869	-2735.69434	88.93010	355.81424	0.00000	0.00000	0.00000	-2659.73291	44.18344	317.40005	-2849.25464	37.34860	362.22934	-2889.50024	61.88325	293.75351	-2803.73755	109.48125	383.04294	-2423.16968	995.68427	227.21257	-2575.30737	964.00958	115.04858	-2458.05542	720.09167	85.31628	-2457.86133	680.85260	77.18714	-2523.28369	721.09167	68.57252	-2511.66260	676.95032	68.29441	-2440.02539	459.26492	126.32323	-2472.91113	442.51431	238.98521	-2324.86060	429.34177	130.96181	-2300.48071	393.27011	131.06696	0.00000	0.00000	0.00000	-2339.05078	359.33698	125.91284	-2150.88916	172.82526	184.12241	-2206.00024	171.90175	278.50925	-2075.33496	168.47372	236.03830	-2220.75781	43.27511	261.49622	-2243.90991	40.74243	219.95679	-2193.12158	44.55223	158.59106
1713	6.84800	-2421.52686	994.41071	312.98227	-2597.91016	995.35474	440.89627	-2616.03931	759.62610	480.49750	-2638.23267	717.99146	473.52557	-2668.02930	785.39856	458.47604	-2681.17480	740.87244	452.52643	-2732.24780	501.65289	385.56000	-2695.98096	404.50082	404.54904	-2785.30005	400.33588	405.45383	-2758.35034	404.00443	445.16898	0.00000	0.00000	0.00000	-2737.44238	368.33405	385.00659	-2735.96826	88.84058	355.82870	0.00000	0.00000	0.00000	-2659.55493	44.31006	317.33093	-2849.34204	37.28009	362.20050	-2889.57715	61.33437	293.49399	-2802.45728	113.28500	387.92960	-2427.80347	995.90735	227.02011	-2579.59082	964.51727	116.04829	-2462.20068	718.30798	87.45607	-2465.31006	679.87170	77.50899	-2529.28052	721.03693	68.74129	-2518.34229	676.73987	68.71194	-2448.80640	458.60818	125.84570	-2482.59668	441.13885	237.95540	-2333.88818	430.12103	131.24081	-2308.83911	394.47894	131.30984	0.00000	0.00000	0.00000	-2346.49927	359.97589	125.75520	-2156.08813	176.35304	184.06409	-2210.93237	174.67297	278.47342	-2080.65283	174.19998	236.14682	-2222.44385	44.74928	261.47086	-2245.14331	41.09902	219.92899	-2194.59473	46.60527	158.65462
1714	6.85200	-2425.36279	994.90924	313.02213	-2602.17358	996.38684	441.43076	-2620.40405	760.45959	481.37329	-2642.35083	718.67566	474.34375	-2672.37036	786.00879	459.27826	-2685.28271	741.41290	453.23755	-2733.84619	500.97614	386.42188	-2699.23877	387.55246	419.24603	-2786.81763	400.19574	405.83914	-2761.49487	403.71884	452.14395	0.00000	0.00000	0.00000	-2739.43750	368.15057	385.27136	-2736.20264	88.76166	355.81592	0.00000	0.00000	0.00000	-2659.55786	44.33136	317.37378	-2849.43921	37.21169	362.21588	-2889.67505	60.76658	293.33179	-2801.35474	117.13414	392.84879	-2432.23315	996.08502	226.93330	-2583.93164	965.09198	116.91379	-2467.23071	716.85034	88.88228	-2471.94458	679.10663	77.88103	-2529.22900	721.00452	66.61748	-2525.07520	676.56433	69.07439	-2457.63257	457.90451	125.45537	-2492.45288	439.76190	236.96124	-2342.22949	431.00787	131.38875	-2316.86646	395.71265	131.45372	0.00000	0.00000	0.00000	-2354.19409	360.59772	125.61908	-2161.74146	179.98135	184.01314	-2215.97803	177.40868	278.43158	-2086.41992	180.01697	236.18565	-2224.03809	46.30518	261.44009	-2246.62305	41.52127	219.79440	-2195.71167	49.24032	158.14612
1715	6.85600	-2429.31030	995.15057	312.80176	-2606.43140	997.42157	442.00845	-2624.67163	761.28345	482.26218	-2646.34521	719.40912	475.13745	-2676.62891	786.59583	459.98703	-2689.19531	741.87823	453.92798	-2735.41284	500.38501	387.17029	-2700.39282	387.51559	419.75952	-2788.27686	400.08133	406.22522	-2761.48096	403.86301	445.90927	0.00000	0.00000	0.00000	-2741.35791	367.96588	385.54251	-2736.43018	88.72276	355.82901	0.00000	0.00000	0.00000	-2659.80615	44.27918	317.44724	-2849.46973	37.12266	362.24115	-2864.02075	21.85387	311.22925	-2808.44873	136.09677	357.52151	-2436.68750	996.25293	226.96507	-2588.30493	965.79431	117.66246	-2473.37769	715.85822	89.41148	-2478.57666	678.31952	78.24713	-2534.51929	720.06665	67.97419	-2531.81470	676.34955	69.41405	-2466.58740	457.21698	125.12202	-2502.38037	438.36758	236.00322	-2351.17529	431.82965	131.63179	-2325.21973	396.90744	131.61453	0.00000	0.00000	0.00000	-2362.12183	361.20520	125.50292	-2168.40063	183.33557	184.08881	-2221.13770	180.10477	278.38364	-2092.40063	185.98836	236.18108	-2225.84692	48.09650	261.33627	-2248.14136	42.08689	219.70087	-2197.99365	51.20467	158.71819
1716	6.86000	-2433.42847	995.15295	312.34354	-2610.65674	998.31036	442.62759	-2628.84497	762.19604	483.04312	-2650.17236	720.10852	475.91611	-2680.77612	787.08417	460.63864	-2693.06543	742.29932	454.51147	-2736.90576	499.95651	387.79480	-2705.02808	387.72931	418.21347	-2789.56372	399.98318	406.47177	-2762.94360	403.81372	446.22531	0.00000	0.00000	0.00000	-2743.20557	367.77997	385.81989	-2736.60986	88.66990	355.82785	0.00000	0.00000	0.00000	-2659.82397	44.30376	317.44778	-2849.57129	37.05295	362.26868	-2827.60693	-33.50227	336.96329	-2831.18970	78.30391	265.25165	-2440.98975	996.43597	226.99785	-2592.58057	966.54053	118.35536	-2479.64136	714.91302	89.79391	-2485.23096	677.54498	78.54637	-2541.64282	720.61401	67.32932	-2538.48364	676.09528	69.71288	-2475.61646	456.48688	124.85616	-2512.46045	437.09622	235.10175	-2360.40649	432.53464	131.74881	-2333.89795	398.01361	131.76263	0.00000	0.00000	0.00000	-2370.26929	361.80099	125.40523	-2174.36206	187.30717	183.84726	-2226.41138	182.75705	278.32941	-2098.64893	192.04062	236.10709	-2227.88672	50.01580	261.16943	-2249.71924	42.72137	219.61255	-2200.01611	53.86818	158.69618
1717	6.86400	-2437.77686	994.93420	311.66983	-2614.85059	999.19781	443.21771	-2632.80151	763.03491	483.65256	-2653.82397	720.78247	476.57208	-2684.83398	787.47394	461.25531	-2696.78662	742.64783	455.08850	-2738.41113	499.68188	388.31763	-2706.32227	387.69824	418.46530	-2791.04858	400.04227	406.78329	-2764.21851	403.81784	446.52252	0.00000	0.00000	0.00000	-2744.98218	367.59302	386.10300	-2736.75635	88.62168	355.82419	0.00000	0.00000	0.00000	-2659.84155	44.30976	317.41983	-2849.62354	37.02842	362.30872	-2802.31934	-71.76175	354.64261	-2832.30786	20.02422	253.26779	-2445.29688	996.47833	227.15837	-2596.72363	967.24811	119.03558	-2485.80957	713.85083	90.23048	-2493.05225	676.64917	79.04452	-2547.71265	720.46210	67.51762	-2545.24463	675.86993	70.01685	-2485.61816	455.58859	124.74717	-2522.55713	435.90909	234.22173	-2369.82642	433.16061	131.89557	-2342.74902	399.09222	131.90393	0.00000	0.00000	0.00000	-2378.62305	362.38782	125.32446	-2180.33472	191.23424	183.73543	-2231.80029	185.36143	278.26868	-2105.17529	198.15877	236.01401	-2229.95435	52.11618	260.96646	-2251.54272	43.56558	219.43668	-2202.20923	56.67923	158.63115
